<svg width="16" height="16" viewBox="0 0 16 16" fill="none" xmlns="http://www.w3.org/2000/svg">
<path d="M9.13086 7.50945L14.6986 1.94212C15.1428 1.49798 15.1428 0.7776 14.6986 0.333452C14.254 -0.111151 13.5341 -0.111151 13.09 0.333452L7.52219 5.90078L1.95487 0.333452C1.51072 -0.111151 0.789887 -0.111151 0.346194 0.333452C-0.0984088 0.7776 -0.0984088 1.49798 0.346194 1.94212L5.91352 7.50945L0.333452 13.09C-0.111151 13.5346 -0.111151 14.2545 0.333452 14.6986C0.555526 14.9207 0.846771 15.0317 1.13802 15.0317C1.42926 15.0317 1.7205 14.9207 1.94258 14.6986L7.52264 9.11812L13.09 14.6854C13.312 14.9075 13.6033 15.0186 13.8945 15.0186C14.1858 15.0186 14.4766 14.9075 14.6991 14.6854C15.1432 14.2408 15.1432 13.5209 14.6991 13.0768L9.13086 7.50945Z" fill="#8C1717"/>
</svg>